<svg version="1.1" viewBox="0.0 0.0 1024.0 1024.0" fill="none" stroke="none" stroke-linecap="square" stroke-miterlimit="10" xmlns:xlink="http://www.w3.org/1999/xlink" xmlns="http://www.w3.org/2000/svg"><clipPath id="p.0"><path d="m0 0l1024.0 0l0 1024.0l-1024.0 0l0 -1024.0z" clip-rule="nonzero"/></clipPath><g clip-path="url(#p.0)"><path fill="#000000" fill-opacity="0.0" d="m0 0l1024.0 0l0 1024.0l-1024.0 0z" fill-rule="evenodd"/><path fill="#4285f4" d="m12.729659 512.0l0 0c0 -278.3515 225.64848 -504.0 504.00003 -504.0l0 0c133.66907 0 261.86346 53.099846 356.38177 147.61818c94.51837 94.51834 147.61823 222.71272 147.61823 356.38184l0 0c0 278.3515 -225.6485 504.0 -504.0 504.0l0 0c-278.35153 0 -504.00003 -225.6485 -504.00003 -504.0z" fill-rule="evenodd"/><path fill="#cd5c5c" d="m266.21167 1026.9689l18.465332 -485.7008l448.36066 0l18.465332 485.7008z" fill-rule="evenodd"/><path fill="#cd5c5c" d="m339.41034 105.76247l338.86615 0l0 353.6693l-338.86615 0z" fill-rule="evenodd"/><path fill="#ffd800" d="m420.42886 198.60995l176.81894 0l0 260.8504l-176.81894 0z" fill-rule="evenodd"/><path fill="#eeeeee" d="m374.28888 558.1097l378.7713 379.1499l1.8310547E-4 93.98407l0 0l-93.88995 2.4414062E-4l-378.7713 -379.14996l-1.8310547E-4 -93.98407l0 0z" fill-rule="evenodd"/><path fill="#b22222" d="m223.99606 459.44485l569.7008 0l0 189.95279l-569.7008 0z" fill-rule="evenodd"/></g></svg>